<?xml version="1.0" encoding="UTF-8"?>
<!DOCTYPE svg PUBLIC "-//W3C//DTD SVG 1.0//EN" "http://www.w3.org/TR/2001/REC-SVG-20010904/DTD/svg10.dtd">
<!-- Creator: CorelDRAW 2017 -->
<svg xmlns="http://www.w3.org/2000/svg" xml:space="preserve" width="356px" height="200px" version="1.0" shape-rendering="geometricPrecision" text-rendering="geometricPrecision" image-rendering="optimizeQuality" fill-rule="evenodd" clip-rule="evenodd"
viewBox="0 0 35600 20025"
 xmlns:xlink="http://www.w3.org/1999/xlink">
 <g id="Layer_x0020_1">
  <metadata id="CorelCorpID_0Corel-Layer"/>
  <g id="_2038052909984">
   <path fill="#E6E7E8" d="M0 0l35600 0 0 20025 -35600 0 0 -20025z"/>
   <path fill="#373435" fill-opacity="0.031373" d="M2102 17538c67,103 111,202 155,311 31,64 48,183 198,183 44,0 107,-14 163,-45 63,-33 111,-82 135,-159l61 -201 145 -72 10 10c-19,76 -24,148 -24,206 0,169 145,233 262,233 68,0 128,-33 128,-95 0,-81 -34,-216 -78,-338 68,-68 136,-136 214,-191l12 6c34,144 53,286 53,381 0,92 -41,195 -75,263 -70,132 -194,237 -344,237 -114,0 -240,-57 -327,-163l-5 0c-83,101 -209,194 -412,194l-63 0c-10,134 -39,229 -82,313 -122,237 -480,404 -817,404 -470,0 -705,-272 -705,-632 0,-223 72,-431 184,-577l92 37c-70,134 -116,261 -116,385 0,338 274,499 591,499 293,0 657,-188 722,-404 -24,-237 -114,-348 -250,-565 42,-72 95,-144 160,-220l13 0zm5414 -1273c99,62 196,136 290,221 -53,74 -118,142 -201,201 -94,-76 -189,-142 -286,-212 66,-74 131,-146 197,-210zm51 925c-160,0 -291,105 -291,183 0,167 320,219 702,217 -48,-196 -215,-400 -411,-400zm-359 894c208,0 390,-6 528,-41 155,-39 286,-118 286,-171 0,-15 0,-31 -5,-46 -87,9 -186,9 -274,9 -281,0 -496,-64 -581,-223 -22,-43 -36,-93 -36,-148 0,-153 65,-303 181,-406 97,-84 204,-138 313,-138 196,0 354,159 463,408 60,136 101,292 101,490 0,132 -36,243 -118,326 -153,148 -434,204 -865,204l-197 0 0 0 -51 0c-106,0 -184,-19 -244,-66l-10 0c2,24 5,49 5,72 0,97 -32,220 -97,319 -192,286 -400,410 -579,410 -182,0 -405,-70 -606,-161l36 -70c66,27 155,45 279,45 325,0 751,-313 804,-617 -12,-25 -33,-58 -65,-93 -94,-113 -155,-208 -211,-307 49,-95 92,-171 134,-239l16 -2c139,282 265,445 546,445l43 0 0 0 204 0zm-1406 299c24,-130 26,-276 26,-412l0 -202c0,-377 -48,-925 -87,-1281 68,-75 163,-161 238,-219l21 6c51,449 64,971 64,1450 0,126 -5,250 -17,340 -8,114 -73,200 -214,332l-31 -14zm-1447 -596c7,177 94,317 397,317 189,0 349,-49 526,-133 31,-15 48,-33 48,-50 0,-111 -84,-257 -228,-391 -138,-126 -322,-237 -494,-311 -58,-25 -77,-52 -77,-76 0,-52 68,-159 123,-235l20 -2c196,103 416,255 579,426 148,157 240,315 240,488 0,128 -39,250 -102,361 -216,109 -446,191 -674,191 -276,0 -465,-129 -465,-434 0,-33 0,-85 12,-151l95 0zm-500 -502l172 278c63,103 121,214 121,391l0 227c0,183 -117,379 -306,572 -147,132 -278,188 -399,188 -180,0 -386,-56 -623,-159l26 -70c76,21 163,37 270,37 341,-2 690,-251 850,-556 19,-35 27,-68 27,-91 0,-35 -20,-74 -34,-109 -87,-165 -184,-315 -291,-453 56,-88 111,-173 172,-257l15 2z"/>
   <path fill="#373435" fill-opacity="0.078431" d="M0 11992l0 3 0 308 0 2826 0 619 0 569 0 715 0 251 0 319 0 1278 0 490 0 619 0 36 640 0 0 0 474 0 371 0 13 0 296 0 3 0 383 0 459 0 585 0 130 0 419 0 139 0 77 0 27 0 64 0 41 0 516 0 722 0 448 0 118 0 82 0 32 0 162 0 231 0 83 0 119 0 250 0 306 0 86 0 3 0 84 0 205 0 2 0 42 0 77 0 204 0 16 0 67 0 156 0 20 0 111 0 134 0 14 0 231 0 69 0 35 0 7 0 72 0 211 0 131 0 3 0 9 0 16 0 63 0 167 0 69 0 8 0 176 0 89 0 105 0 252 0 590 0 63 0 45 0 16 0 214 0 438 0 5 0 70 0 58 0 135 0 243 0 73 0 61 0 22 0 19 0 28 0 531 0 41 0 48 0 0 0 0 0 1 0 0 0 12 0 26 0 18 0 79 0 247 0 67 0 190 0 106 0 64 0 26 0 5 0 2 0 61 0 437 0 32 0 45 0 49 0 22 0 112 0 451 0 5 0 109 0 28 0 94 0 301 0 104 0 90 0 48 0 45 0 19 0 233 0 71 0 1 0 70 0 466 0 770 0 366 0 403 0 34 0 24 0 2822 0 240 0 479 0 30 0 464 0 2969 -2475 -99 74 -106 65 -113 54 -118 44 -123 31 -128 20 -131 7 -30 0 575 -480 145 -120 119 -144 91 -166 57 -183 20 -196 0 -6249 0 -6837 -20 -197 -57 -183 -91 -166 -119 -144 -145 -120 -166 -90 -183 -57 -196 -20 -13086 0 -196 20 -183 57 -166 90 -145 120 -581 484 8 -53 32 -123 44 -118 54 -113 65 -106 74 -99 83 -92 1 -1 92 -83 -10439 8704 0 7 0 0 0 404 0 190 0 211z"/>
   <g>
    <rect fill="#FEFEFE" x="10280" y="2493" width="15039" height="15039" rx="977" ry="977"/>
    <path fill="#005568" fill-rule="nonzero" d="M11257 2180l13086 0c354,0 676,145 910,379l1 1c233,234 378,556 378,910l0 13086c0,354 -145,676 -378,909l-1 1c-234,234 -556,379 -910,379l-13086 0c-354,0 -676,-145 -910,-379l-1 -1c-233,-233 -378,-555 -378,-909l0 -13086c0,-354 145,-676 378,-910l1 -1c234,-234 556,-379 910,-379zm13086 625l-13086 0c-183,0 -349,75 -470,195 -120,120 -194,287 -194,470l0 13086c0,183 74,349 194,469 121,120 287,195 470,195l13086 0c183,0 349,-75 470,-195 120,-120 194,-286 194,-469l0 -13086c0,-183 -74,-350 -194,-470 -121,-120 -287,-195 -470,-195z"/>
    <path fill="#005568" d="M25320 10307l0 6249c0,537 -440,976 -977,976l-13086 0c-537,0 -977,-439 -977,-976l0 -6249 15040 0z"/>
    <g>
     <path fill="#FEFEFE" d="M20932 15913c0,-210 117,-387 280,-468 226,-113 514,-48 656,154 192,276 94,677 -230,800 -143,54 -279,39 -413,-16 -47,-19 -115,-70 -148,-106 -79,-85 -145,-205 -145,-364zm-536 -43c0,139 7,270 59,400 8,19 12,24 19,44 129,358 544,629 917,629 236,0 311,-9 519,-95l85 -43c100,-62 127,-80 214,-167 22,-22 43,-40 62,-65 555,-709 72,-1698 -816,-1698 -222,0 -384,50 -556,143 -47,26 -190,137 -218,171 -94,112 -107,114 -184,267 -52,102 -101,265 -101,414z"/>
     <path fill="#FEFEFE" d="M16483 15496c0,175 74,337 194,427 121,90 145,95 271,146 108,44 382,87 382,246 0,72 -45,111 -99,141 -139,80 -481,35 -644,-5 -19,-5 -26,-6 -46,-11 -18,-4 -28,-10 -51,-12l0 466c59,0 275,49 480,49 153,0 273,1 418,-48 137,-46 274,-123 359,-241 175,-242 154,-620 -88,-809 -124,-97 -253,-141 -405,-187 -69,-21 -234,-69 -234,-169l0 -35c0,-91 152,-141 254,-141 218,0 233,7 445,56l0 -430c-170,-40 -309,-64 -509,-64 -400,0 -727,225 -727,621z"/>
     <path fill="#FEFEFE" d="M19350 16943c143,0 283,-4 418,-41 30,-8 64,-21 98,-22 17,-71 7,-423 7,-522 0,-36 -34,-11 -80,11 -218,103 -558,104 -727,-66 -139,-139 -168,-236 -168,-433 0,-131 70,-256 157,-344 160,-161 423,-168 636,-109 37,11 56,19 89,31 58,20 59,33 93,34l0 -515c0,-59 -409,-92 -459,-92 -302,0 -544,93 -754,284 -7,6 -10,8 -16,13 -1,1 -2,2 -3,3l-45 48c-20,20 -40,46 -57,70 -181,240 -218,525 -178,818 43,314 276,601 567,732 107,47 272,100 422,100z"/>
     <path fill="#FEFEFE" d="M13093 15906c0,138 28,297 82,425 93,220 289,424 510,515 282,115 542,127 840,54 21,-5 75,-18 93,-27l0 -537c-33,8 -55,27 -87,40 -246,98 -523,97 -727,-80l-62 -72c-36,-51 -69,-125 -81,-187 -24,-121 -22,-231 27,-341 152,-339 540,-371 840,-250 29,12 59,34 90,36l0 -536 -212 -50c-259,-44 -456,-20 -686,63 -94,34 -243,131 -319,204l-192 259c-72,146 -116,313 -116,484z"/>
     <path fill="#FEFEFE" d="M20290 11176l0 2584c0,114 43,199 129,251 132,79 379,20 379,-244l0 -2605c0,-349 -508,-369 -508,14z"/>
     <path fill="#FEFEFE" d="M14809 11113l0 2703c0,71 32,114 69,150 75,76 115,76 206,76 105,0 226,-113 226,-240l0 -2654c0,-204 -237,-343 -421,-189 -34,29 -80,95 -80,154z"/>
     <path fill="#FEFEFE" d="M15303 14932l0 1976 509 0 0 -1998 -487 0c-17,0 -22,5 -22,22z"/>
     <path fill="#FEFEFE" d="M21660 12101l0 1179c0,292 364,358 480,134 9,-18 28,-73 28,-99l0 -1249c0,-110 -118,-233 -247,-233 -151,0 -261,115 -261,268z"/>
     <path fill="#FEFEFE" d="M13432 12087l0 1207c0,133 110,254 261,254 132,0 247,-122 247,-254l0 -1207c0,-211 -265,-347 -433,-179 -38,38 -75,106 -75,179z"/>
     <path fill="#FEFEFE" d="M16179 12066l0 1249c0,40 9,62 23,90 12,24 32,53 49,71 94,93 268,96 360,-5 46,-50 70,-105 70,-177l0 -1207c0,-210 -243,-340 -421,-188 -38,32 -81,100 -81,167z"/>
     <path fill="#FEFEFE" d="M18919 12108l0 1165c0,242 247,356 422,209 31,-26 80,-100 80,-153l0 -1278c0,-52 -51,-126 -79,-153 -13,-12 -54,-37 -69,-44 -63,-28 -143,-26 -203,2 -97,46 -151,129 -151,252z"/>
     <path fill="#FEFEFE" d="M23037 12750l0 565c0,122 117,233 247,233 141,0 255,-113 255,-254l0 -530c0,-135 -129,-247 -248,-247 -126,0 -254,108 -254,233z"/>
     <path fill="#FEFEFE" d="M17549 12750l0 558c0,62 33,127 73,167 157,157 429,42 429,-167l0 -558c0,-84 -73,-177 -151,-209 -207,-83 -351,100 -351,209z"/>
     <path fill="#FEFEFE" d="M12061 12764l0 530c0,198 235,345 422,188 34,-28 80,-95 80,-153l0 -579c0,-87 -71,-181 -151,-209 -107,-38 -189,-27 -271,49 -39,36 -80,102 -80,174z"/>
    </g>
    <g>
     <path fill="#E80000" fill-rule="nonzero" d="M12824 8677l1854 -927 0 569 845 0 4241 -4241 1158 0 0 -570 1854 928 -1854 927 0 -570 -862 0 -4241 4242 -1141 0 0 569 -1854 -927z"/>
     <path fill="#E80000" fill-rule="nonzero" d="M22776 8677l-1854 927 0 -569 -1141 0 -4242 -4242 -861 0 0 570 -1854 -927 1854 -928 0 570 1158 0 4241 4241 845 0 0 -569 1854 927z"/>
    </g>
   </g>
  </g>
 </g>
</svg>
